<svg xmlns="http://www.w3.org/2000/svg" viewBox="0 0 720 400" width="100%" font-family="Pretendard, -apple-system, Segoe UI, Roboto, sans-serif"><rect width="720" height="400" rx="12" fill="#f7f9fb"/><text x="360" y="38" text-anchor="middle" font-size="14" font-weight="700" fill="#1d3a5c">ImageNet 에러율 — 깊어질수록 떨어졌고, 2015년에 사람을 넘었다</text>

<line x1="80" y1="300" x2="672" y2="300" stroke="#40556b" stroke-width="1.2"/>
<line x1="80" y1="80" x2="80" y2="300" stroke="#40556b" stroke-width="1.2"/>
<text x="52" y="86" font-size="11" fill="#40556b">30%</text>
<text x="52" y="196" font-size="11" fill="#40556b">15%</text>
<text x="60" y="304" font-size="11" fill="#40556b">0</text>
<line x1="80" y1="262" x2="672" y2="262" stroke="#a04040" stroke-width="1.2" stroke-dasharray="6 4"/>
<text x="596" y="256" font-size="11.5" fill="#a04040">사람 5.1%</text>

<g>
<rect x="96" y="93" width="42" height="207" fill="#c9d4e0"/><text x="117" y="86" text-anchor="middle" font-size="11" fill="#40556b">28.2</text>
<rect x="156" y="111" width="42" height="189" fill="#c9d4e0"/><text x="177" y="104" text-anchor="middle" font-size="11" fill="#40556b">25.8</text>
<rect x="216" y="180" width="42" height="120" fill="#3d6fa8"/><text x="237" y="173" text-anchor="middle" font-size="11" font-weight="700" fill="#1d3a5c">16.4</text>
<rect x="276" y="214" width="42" height="86" fill="#c9d4e0"/><text x="297" y="207" text-anchor="middle" font-size="11" fill="#40556b">11.7</text>
<rect x="336" y="246" width="42" height="54" fill="#3d6fa8"/><text x="357" y="239" text-anchor="middle" font-size="11" font-weight="700" fill="#1d3a5c">7.3</text>
<rect x="396" y="251" width="42" height="49" fill="#c9d4e0"/><text x="417" y="244" text-anchor="middle" font-size="11" fill="#40556b">6.7</text>
<rect x="456" y="274" width="42" height="26" fill="#3d6fa8"/><text x="477" y="267" text-anchor="middle" font-size="11" font-weight="700" fill="#1d3a5c">3.6</text>
<rect x="516" y="278" width="42" height="22" fill="#c9d4e0"/><text x="537" y="271" text-anchor="middle" font-size="11" fill="#40556b">3.0</text>
<rect x="576" y="283" width="42" height="17" fill="#c9d4e0"/><text x="597" y="276" text-anchor="middle" font-size="11" fill="#40556b">2.3</text>
</g>

<g font-size="10.5" fill="#40556b" text-anchor="middle">
<text x="117" y="318">2010</text><text x="177" y="318">2011</text>
<text x="237" y="318" font-weight="700" fill="#1d3a5c">2012</text>
<text x="297" y="318">2013</text>
<text x="357" y="318" font-weight="700" fill="#1d3a5c">2014</text>
<text x="417" y="318">2014</text>
<text x="477" y="318" font-weight="700" fill="#1d3a5c">2015</text>
<text x="537" y="318">2016</text><text x="597" y="318">2017</text>
</g>
<g font-size="10.5" text-anchor="middle">
<text x="117" y="334" fill="#8a97a5">얕은 모델</text>
<text x="177" y="334" fill="#8a97a5">얕은 모델</text>
<text x="237" y="334" fill="#a04040" font-weight="700">AlexNet</text>
<text x="297" y="334" fill="#8a97a5">ZFNet</text>
<text x="357" y="334" fill="#a04040" font-weight="700">VGG</text>
<text x="417" y="334" fill="#8a97a5">GoogLeNet</text>
<text x="477" y="334" fill="#a04040" font-weight="700">ResNet</text>
<text x="537" y="334" fill="#8a97a5">Shao</text>
<text x="597" y="334" fill="#8a97a5">SENet</text>
</g>
<g font-size="10.5" text-anchor="middle" fill="#4f8f68">
<text x="237" y="350">8층</text><text x="297" y="350">8층</text><text x="357" y="350">19층</text><text x="417" y="350">22층</text><text x="477" y="350">152층</text>
</g>
<text x="360" y="380" text-anchor="middle" font-size="12.5" fill="#1d3a5c">2012년 AlexNet 한 방으로 판이 갈렸다 — 여기서부터 전부 딥러닝</text>
</svg>
